<svg xmlns="http://www.w3.org/2000/svg" width="270" height="87" viewBox="0 0 270.933 87.21"><path d="M0-.1h76.845v76.845H0z" fill="none"/><path d="M65.639 35.12h-4.803V22.314c0-3.522-2.882-6.404-6.404-6.404H41.625v-4.802a8.008 8.008 0 00-8.005-8.005 8.008 8.008 0 00-8.005 8.005v4.802H12.808c-3.523 0-6.372 2.882-6.372 6.404V34.48h4.77c4.771 0 8.646 3.875 8.646 8.646 0 4.77-3.875 8.645-8.645 8.645H6.404v12.167c0 3.522 2.881 6.404 6.404 6.404h12.167v-4.803c0-4.771 3.874-8.645 8.645-8.645 4.77 0 8.645 3.874 8.645 8.645v4.803h12.167c3.522 0 6.404-2.882 6.404-6.404V51.13h4.803a8.008 8.008 0 008.005-8.004 8.008 8.008 0 00-8.005-8.005z" fill="#ff8900"/><g aria-label="Extly" fill="#ff8900"><path d="M90.892 15.973h32.77v8.15H100.54v13.89h19.545v8.151H100.54v16.053h23.954v8.15H90.892zM145.177 49.075L133.034 29.53h10.313l4.575 7.735q.915 1.663 1.83 3.493.998 1.747 1.912 3.41h.333q.749-1.663 1.58-3.41.832-1.83 1.58-3.493l3.91-7.735h9.897l-12.06 20.627 12.975 20.21h-10.313l-4.99-8.067q-.999-1.83-2.08-3.66-.998-1.83-2.08-3.576h-.332q-.915 1.746-1.83 3.576-.831 1.747-1.746 3.66l-4.325 8.068h-9.981zM180.861 37.099h-5.822v-7.153l6.321-.416 1.165-11.145h7.984V29.53h10.397v7.569h-10.397V56.56q0 7.153 5.74 7.153 1.08 0 2.162-.25 1.164-.25 2.079-.665l1.663 7.07q-1.663.582-3.826.998-2.079.499-4.49.499-3.577 0-6.073-1.082-2.411-1.08-3.992-2.994-1.497-1.996-2.245-4.658-.666-2.744-.666-6.071zM211.876 11.648h9.565v48.739q0 1.746.665 2.495.666.665 1.414.665h.583q.332 0 .915-.166l1.247 7.153q-1.913.832-5.074.832-5.156 0-7.235-3.078-2.08-3.077-2.08-8.4zM236 78.851q.583.166 1.332.333.831.25 1.58.25 3.244 0 5.157-1.997 1.996-1.913 2.994-4.99l.748-2.579L231.76 29.53h9.731l7.07 20.044q.915 2.662 1.746 5.656l1.83 5.822h.333q.749-2.828 1.497-5.739.832-2.994 1.58-5.739l6.155-20.044h9.232L256.13 72.197q-1.248 3.494-2.745 6.238-1.497 2.745-3.494 4.658-1.912 1.996-4.49 2.994-2.496 1.081-5.823 1.081-1.663 0-2.91-.25-1.248-.165-2.413-.581z"/></g></svg>
