<svg xmlns="http://www.w3.org/2000/svg" width="1000" height="1000" viewBox="0 0 270.933 270.933"><path d="M0 0h270.933v270.933H0z" fill="none"/><path d="M225.778 129.822h-16.933V84.667c0-12.418-10.16-22.578-22.578-22.578H141.11V45.156c0-15.58-12.643-28.223-28.222-28.223S84.667 29.577 84.667 45.156v16.933H39.51c-12.418 0-22.465 10.16-22.465 22.578v42.897h16.82c16.821 0 30.48 13.66 30.48 30.48s-13.659 30.48-30.48 30.48H16.934v42.898c0 12.418 10.16 22.578 22.578 22.578H82.41v-16.933c0-16.82 13.66-30.48 30.48-30.48s30.48 13.66 30.48 30.48V254h42.898c12.418 0 22.578-10.16 22.578-22.578v-45.155h16.933c15.579 0 28.222-12.644 28.222-28.223 0-15.578-12.643-28.222-28.222-28.222z" fill="#ff8900"/></svg>
