<svg xmlns="http://www.w3.org/2000/svg" data-name="Layer 1" viewBox="0 0 1230.598 806.321"><path d="M477.92 100.554C426.498 87.09 372.4 76.28 318.254 80.207c-79.67 5.726-153.509 45.45-187.207 100.657-28.553 46.768-28.636 100.198-38.708 151.194-12.408 62.842-40.492 123.239-70.89 182.43-16.334 31.752-33.628 64.297-34.22 98.428-.832 47.376 32.21 93.183 80.963 122.668 48.752 29.486 111.72 43.437 173.92 44.465 33.12.548 67.445-2.673 95.9-15.58 30.1-13.655 51.074-36.942 81.308-50.418 28.021-12.536 61.633-15.49 94.109-15.37a425.758 324.084 0 01125.394 14.866c46.173 11.048 89.596 28.017 135.688 39.244 46.09 11.227 97.056 16.443 142.412 3.565 42.562-12.11 75.055-38.473 104.127-65.052a1393.45 1060.685 0 00128.697-138.971c25.574-32.933 49.085-67.536 58.742-105.083 18.441-71.774-19.73-150.293-95.13-195.64-62.432-37.564-143.651-51.61-222.672-58.888-72.052-6.64-154.604-3.79-222.1-26.117-64.383-21.331-123.512-48.463-190.667-66.052z" opacity=".1" fill="#ff890f"/><path fill="#3f3d56" d="M16.343 784.205h1191.856v16.275H16.343zm248.095-405.221h-1.346v-2.355h1.01a.673.673 0 00.672-.673v-12.112a.673.673 0 00-.673-.672h-1.009v-6.88a14.653 14.653 0 00-14.653-14.652h-1.496v-1.682a.673.673 0 00-.673-.673h-12.11a.673.673 0 00-.673.673v1.682H14.653A14.653 14.653 0 000 356.293V668.13a14.653 14.653 0 0014.653 14.654H248.44a14.653 14.653 0 0014.653-14.654V392.44h1.346a.673.673 0 00.673-.672v-12.112a.673.673 0 00-.673-.673z"/><path fill="#fff" d="M10.85 353.785h240.89v319.62H10.85z"/><path d="M1074.616 722.082h-68.02v-4.9a.972.972 0 00-.97-.973h-23.322a.972.972 0 00-.972.972v4.9h-14.575v-4.9a.972.972 0 00-.972-.972h-23.32a.972.972 0 00-.973.972v4.9h-14.575v-4.9a.972.972 0 00-.972-.972h-23.32a.972.972 0 00-.973.972v4.9h-14.575v-4.9a.972.972 0 00-.972-.972h-23.32a.972.972 0 00-.972.972v4.9h-14.576v-4.9a.972.972 0 00-.972-.972h-23.32a.972.972 0 00-.972.972v4.9h-14.576v-4.9a.972.972 0 00-.972-.972h-23.32a.972.972 0 00-.972.972v4.9h-14.576v-4.9a.972.972 0 00-.972-.972h-182.68a.972.972 0 00-.972.972v4.9h-14.575v-4.9a.972.972 0 00-.972-.972h-23.32a.972.972 0 00-.973.972v4.9h-14.575v-4.9a.972.972 0 00-.972-.972h-23.32a.972.972 0 00-.973.972v4.9h-14.575v-4.9a.972.972 0 00-.972-.972h-23.32a.972.972 0 00-.972.972v4.9h-14.576v-4.9a.972.972 0 00-.972-.972h-23.32a.972.972 0 00-.972.972v4.9h-14.576v-4.9a.972.972 0 00-.972-.972h-23.32a.972.972 0 00-.972.972v4.9h-14.576v-4.9a.972.972 0 00-.97-.972h-23.322a.972.972 0 00-.972.972v4.9h-44.699a23.32 23.32 0 00-23.32 23.321v10.545a23.32 23.32 0 0023.32 23.321h775.42a23.32 23.32 0 0023.322-23.32v-10.546a23.32 23.32 0 00-23.32-23.32zm-54.563-276.162a53.197 53.197 0 00-31.606-16.678l5.2-4.696-5.75-.29-7.116 6.43 6.43 7.115 5.75.29-4.308-4.764a49.359 49.359 0 01-7.872 98.087v4a53.364 53.364 0 0039.272-89.494zm-690.545 0a53.197 53.197 0 0131.606-16.678l-5.198-4.696 5.75-.29 7.115 6.43-6.43 7.115-5.75.29 4.308-4.764a49.359 49.359 0 007.872 98.087v4a53.364 53.364 0 01-39.273-89.494z" fill="#3f3d56"/><path d="M1036 278.219H746.979v-5.956H615.925v5.957H325.713a19.55 19.55 0 00-19.55 19.55v395.759a19.55 19.55 0 0019.55 19.55H1036a19.55 19.55 0 0019.55-19.55v-395.76a19.55 19.55 0 00-19.55-19.55z" fill="#3f3d56"/><path fill="#fff" d="M331.102 304.833h696.966v393.16H331.102z"/><path fill="#e6e6e6" d="M359.997 320.03h635.945v366.032H359.997z"/><path fill="#fff" d="M416.503 375.083h229.584v235.912H416.503z"/><ellipse fill="#e6e6e6" ry="5.875" rx="41.126" cy="771.677" cx="1189.472"/><ellipse fill="#e6e6e6" ry="5.875" rx="41.126" cy="751.547" cx="547.305"/><ellipse fill="#e6e6e6" ry="4.519" rx="94.387" cy="773.369" cx="186.258"/><path fill="#ff8900" d="M359.997 320.03h635.945v27.017H359.997z"/><circle fill="#e6e6e6" r="5.007" cy="333.843" cx="380.074"/><circle fill="#e6e6e6" r="5.007" cy="333.843" cx="399.081"/><circle fill="#e6e6e6" r="5.007" cy="333.843" cx="418.088"/><path fill="#3f3d56" d="M1216.491 452.914h-1.39v-38.099a22.05 22.05 0 00-22.051-22.05h-80.718a22.05 22.05 0 00-22.05 22.05V623.83a22.05 22.05 0 0022.05 22.05h80.718a22.05 22.05 0 0022.05-22.05V480.034h1.391z"/><path fill="#fff" d="M1193.87 398.376h-10.537a7.823 7.823 0 01-7.244 10.779h-46.242a7.824 7.824 0 01-7.243-10.779h-9.841a16.467 16.467 0 00-16.467 16.467V623.55a16.467 16.467 0 0016.467 16.467h81.106a16.467 16.467 0 0016.467-16.467V414.843a16.467 16.467 0 00-16.467-16.467z"/><path fill="#e6e6e6" d="M451.666 524.103H611.24v7.279H451.666z"/><path fill="#ff8900" d="M451.666 547.604H611.24v7.279H451.666z"/><path fill="#e6e6e6" d="M451.666 571.105H611.24v7.279H451.666zM1107.251 523.166h93.157v7.279h-93.157zM1107.251 545.763h93.157v7.279h-93.157zM1107.251 568.36h93.157v7.279h-93.157z"/><path fill="#a0616a" d="M510.884 569.132l-.67 1.34-2.01-10.049s-2.68-10.718 2.68-10.718c5.359 0 4.02 10.718 4.02 10.718v7.37zM598.778 567.76l.67 1.34 2.01-10.049s2.679-10.718-2.68-10.718c-5.36 0-4.02 10.718-4.02 10.718v7.37z"/><path fill="#2f2e41" d="M553.757 673.272l2.01 34.165-4.02 35.504 12.058 1.34 8.71-73.018-.67-24.786-31.486-2.01-8.038 49.573 4.018 48.231 9.379-4.018-1.34-36.175z"/><path fill="#2f2e41" d="M540.36 736.243l-4.69 7.368v16.466a1.997 1.997 0 001.678 1.97c2.298.378 6.3.646 7.7-1.688 2.01-3.35.67-10.719.67-10.719s2.68-5.359 1.34-9.378c-1.34-4.02-2.68-4.69-2.68-4.69zM560.456 742.941l1.34 2.01s2.01 2.01.67 3.35a26.181 26.181 0 00-2.68 3.35s-7.369 2.009-7.369-.67v-8.71z"/><circle fill="#a0616a" r="8.88" cy="581.065" cx="558.042"/><path fill="#a0616a" d="M551.412 596.57l12.058.67-.67-12.729-10.718-.67z"/><path fill="#575a89" d="M565.145 597.575l-1.901-4.646s-8.817-3.393-11.497-.044l-1.34 4.02-10.718-2.68-6.029 13.398 5.36 38.184s14.067 18.087 32.824.67l5.36-36.175-4.02-14.067z"/><path fill="#575a89" d="M593.95 595.565l-19.426 18.087-2.68-14.737 1.34-2.68 13.398-8.04 8.177-24.202 6.327 2.711zM516.243 592.885l21.437 17.418 3.349-14.738-1.34-1.34-14.068-8.708-10.048-20.097-8.038 2.679z"/><path fill="#2f2e41" d="M564.632 567.467l1.452-.726-2.178-.726v-.726s-10.889-4.356-12.34 2.903a14.592 14.592 0 000 17.423v2.178l11.614 1.452 1.452-4.356s7.26-13.067 0-17.422z"/><path fill="#ffb8b8" d="M1156.39 603.53l.737-4.754s4.296-9.766.9-10.293c-3.395-.526-6.228 8.772-6.228 8.772l1.243 9.93z"/><path fill="#575a89" d="M1160.807 624.385l-3.527-22.108-8.935-.69.437 28.584 26.372 13.826 16.006-13.515z"/><path opacity=".2" d="M1160.807 624.385l-3.527-22.108-8.935-.69.437 28.584 26.372 13.826 16.006-13.515z"/><path fill="#ff8900" d="M1200.408 575.638h-93.157v-7.279h93.157z"/><path fill="#ffb8b8" d="M1150.93 602.615l.01-4.811s2.762-10.306-.675-10.31c-3.436-.006-4.823 9.616-4.823 9.616l2.737 9.625z"/><path fill="#2f2e41" d="M1189.97 615.68l4.165-1.015a10.721 10.721 0 0010.522-12.845 14.014 14.014 0 00-13.996-14.032 14.014 14.014 0 00-14.032 13.996 11.136 11.136 0 0013.341 13.896zM1168.866 722.2l6.14 36.435 10.309.013-1.33-35.741-5.444-43.307-13.065 5.482z"/><path fill="#2f2e41" d="M1176.383 756.575l-6.878 4.115s-10.999 1.36-8.941 4.8c2.057 3.439 26.115 1.407 26.117.033 0-1.375-.676-8.936-2.05-8.938zM1195.908 681.876s-.194 5.306-5.015 13.548l.655 25.43 24.703 31.647-8.944 7.55-30.198-34.404-7.508-41.247 9.634-9.61z"/><path fill="#2f2e41" d="M1214.19 752.499s8.245 1.384 6.866 4.82c-1.379 3.434-4.835 19.238-13.767 17.164 0 0-4.124 0-2.746-2.752a49.717 49.717 0 012.755-4.808l.011-8.935z"/><circle fill="#ffb8b8" r="10.309" cy="606.068" cx="1185.507"/><path fill="#ffb8b8" d="M1180.687 612.936l9.622.011-.015 11.684-10.996-.014z"/><path fill="#575a89" d="M1176.554 620.49l3.332-.818 10.414.836s5.491 5.505 4.802 6.879c-.689 1.373-4.168 35.046-4.168 35.046l6.156 24.064-21.995 1.347-10.995-1.389 2.116-43.297s-4.796-11.69 1.393-15.119a27.075 27.075 0 008.945-7.549z"/><path fill="#575a89" d="M1157.995 621.842l-6.846-21.315-8.935.675 4.775 28.186 28.167 9.658 13.765-15.79z"/><circle fill="#2f2e41" r="6.651" cy="591.822" cx="1205.408"/><path fill="#2f2e41" d="M1199.27 588.246a6.648 6.648 0 017.96-6.513 6.648 6.648 0 10-4.146 12.53 6.646 6.646 0 01-3.814-6.017zM1193.564 592.018l-8.967-1.651-6.896 4.322a10.46 10.46 0 00-4.819 10.21l6.907-1.752 1.546-3.878 1.842 3.02 7.473 13.064 7.565-4.114 4.82-7.554z"/><path fill="#fff" d="M467.256 406.287l.9-1.568 159.082 91.292-.9 1.567z"/><path fill="#fff" d="M451.301 492.7l159.09-91.279.899 1.568-159.09 91.28zM1126.97 441.221l1.278-1.278 51.52 51.521-1.278 1.278z"/><path fill="#fff" d="M1125.924 491.464l51.521-51.521 1.279 1.278-51.522 51.521z"/><path d="M83.49 407.845h141.24v5.247H83.49zm0 16.62h141.24v5.247H83.49zm0 16.618h141.24v5.248H83.49zm-44.787-29.995h32v32h-32zM181.127 472.05H39.887v5.249h141.24zm0 16.62H39.887v5.248h141.24zm0 16.619H39.887v5.248h141.24zm44.788-29.995h-32v32h32z" fill="#ccc"/><circle cx="680.261" cy="294.899" r="7.148" fill="#ff8900"/><path d="M781.266 529.67h179.708v5.16H781.266zm0 16.343h179.708v5.161H781.266zm0 16.344h179.708v5.161H781.266zm-56.987-29.498h40.716v31.47H724.28zM782.057 576.596H961.55v5.376H782.057zm0 17.026H961.55v5.376H782.057zm0 17.025H961.55v5.377H782.057zm-56.92-30.728h40.667V612.7h-40.668z" fill="#fff"/><path d="M154.12 665.886c-.082.017-.088.013-.125.013-.01.014-.016.02-.026.03.091-.026.024 0 .15-.037zm-4.447 12.919c.264.358 1.303 1.251 1.127.86-.013-.03-.046-.056-.062-.087-.006 0-.012-.013-.018-.014-.348-.254-.685-.523-1.046-.76zm-80.817 3.998l-.497.03a3.826 3.09 0 00-3.337 2.844v42.82c.013.057.058.102.071.157.165.7.015 1.389-.054 2.085.055-.03.158-.138.17-.085.196.895.044 2.034-.187 3.138v26.898l.16.388a3.821 3.085 0 003.523 1.884H174.95l.507-.029a3.849 3.107 0 003.354-3.095v-74.326a3.649 2.946 0 00-3.71-2.709zm3.905 6.349h98.39l-.044 53.259h-12.558l-10.03-10.548-.283-.236a2.39 1.93 0 00-3.293.122l-3.009 2.88-.249.223a2.181 1.76 0 01-3.035-.1l-11.892-9.587-.32-.222a2.195 1.772 0 00-2.672.115l-6.576 4.528-.302.186a2.19 1.768 0 01-2.982-.537l-10.357-12.038-.248-.243a2.222 1.794 0 00-3.622.472l-14.262 24.986H72.761zm70.451 14.896a7.155 5.776 0 000 11.55 7.155 5.776 0 000-11.55zM61.02 741.386v.322c.082-.088.159-.182.24-.271-.083-.014-.155-.04-.24-.051z" fill="#ff8900"/><path d="M217.606 585.95l3.03-1.515v1.516l2.02-1.01v2.525s7.576 5.555 6.061 12.121c-1.515 6.566-1.515 7.07-1.515 7.07s-1.916-12.485-9.492-10.465c-7.575 2.02-8.185 2.385-10.205 7.94l-.548 2.384s-8.543-19.555 10.649-20.565z" fill="#2f2e41"/><g transform="translate(476.335 -220.926)"><path fill="#ffb8b8" d="M-305.297 894.331l-2.581 1.29s-10.324 4.732-7.313 7.313c3.011 2.581 11.184-2.58 11.184-2.58l1.721-2.151z"/><path fill="#2f2e41" d="M-288.09 872.822l-17.207 21.51 6.453 6.881 19.786-19.357 7.314-15.916-4.732-18.066-3.012-.43zM-247.656 984.233l-6.452-3.01 6.022-51.189-17.206-14.625 1.29-21.508 36.369-.643-7.978 53.552z"/><path fill="#2f2e41" d="M-254.968 982.513s7.312-3.871 7.742 1.72l-.86 5.593s2.581 9.893-6.022 7.742c-8.603-2.15-2.581-8.603-2.581-8.603zM-259.7 910.677l-5.592 4.731s0 29.251 3.871 33.553c3.872 4.301 28.39 26.24 29.251 27.1.86.86 4.732-8.604 4.732-8.604l-23.229-27.1 1.72-16.776z"/><path fill="#2f2e41" d="M-230.02 966.167s6.883-1.29 6.883 3.441a104.155 104.155 0 00.86 11.184s1.721 15.056-3.87 12.905c-5.593-2.15-7.744-17.206-7.744-17.206a6.408 6.408 0 012.581-3.011c1.72-.86 1.29-7.313 1.29-7.313z"/><path fill="#ffb8b8" d="M-264.002 830.237l12.475-.86 1.29 15.916-3.44 6.022-9.464-9.034z"/><circle fill="#ffb8b8" r="10.324" cy="824.215" cx="-259.27"/><path fill="#d0cde1" d="M-263.574 836.226l8.606 8.637 4.301-12.474 7.743 8.603 14.195 54.629-10.754 6.453-4.731-6.883-.86 9.033-21.079-4.302-1.72-57.64z"/><path fill="#2f2e41" d="M-279.488 847.443l6.883 24.52 2.15 25.81 9.464 8.172-2.58-69.685-5.593 4.301z"/><path fill="#ffb8b8" d="M-229.5 894.294l-.586 2.826s-2.686 11.034 1.206 10.27c3.892-.763 4.906-10.376 4.906-10.376l-.621-2.683z"/><path fill="#2f2e41" d="M-227.438 894.331l-5.162 5.591-19.086-64.576.347-3.656 21.32 8.441-2.581 25.81z"/><path fill="#2f2e41" d="M-223.997 896.481l-6.882-1.29-5.592-39.575 3.44-15.485h3.442l5.592 30.11z"/></g><path fill="#ff8900" d="M901.175 346.286c-.14.03-.15.023-.213.023-.017.023-.028.033-.044.05.156-.044.04 0 .257-.062zm-7.604 22.096c.45.612 2.228 2.14 1.927 1.47-.023-.051-.08-.095-.106-.147-.01 0-.021-.023-.03-.025-.596-.433-1.172-.895-1.791-1.299zm-138.227 6.839l-.85.05a6.544 5.283 0 00-5.708 4.865v73.237c.023.097.1.174.122.27.282 1.197.025 2.375-.092 3.565.093-.05.269-.235.289-.145.337 1.53.077 3.479-.32 5.368v46.005l.274.662a6.536 5.277 0 006.027 3.223H936.8l.866-.05a6.583 5.315 0 005.738-5.294V379.855a6.24 5.038 0 00-6.345-4.634zm6.679 10.858h168.283l-.077 91.092h-21.478l-17.154-18.04-.485-.404a4.088 3.3 0 00-5.632.21l-5.146 4.926-.426.38a3.73 3.012 0 01-5.19-.17l-20.341-16.398-.547-.38a3.754 3.03 0 00-4.57.196l-11.248 7.745-.516.319a3.746 3.024 0 01-5.1-.919l-17.715-20.589-.425-.417a3.8 3.068 0 00-6.193.809l-24.393 42.735h-21.647zm120.497 25.478a12.237 9.88 0 000 19.755 12.237 9.88 0 000-19.755zM741.94 475.42v.55c.14-.15.271-.31.41-.464-.142-.023-.265-.068-.41-.087zM451.301 394.326h161.403V492.7H451.301z"/><path d="M530.568 412.774a30.077 28.138 0 1030.078 28.137 30.166 28.22 0 00-30.078-28.137zm0 8.441a9.023 8.441 0 11-9.023 8.441 9.054 8.47 0 019.023-8.441zm0 40.637a21.911 20.498 0 01-18.046-9.01c.144-5.627 12.03-8.725 18.046-8.725s17.902 3.098 18.047 8.726a21.948 20.532 0 01-18.047 9.01zM54.737 416.417a11.064 10.35 0 1011.064 10.35 11.096 10.38 0 00-11.064-10.35zm0 3.105a3.32 3.105 0 11-3.319 3.105 3.33 3.115 0 013.32-3.105zm0 14.948a8.06 7.54 0 01-6.638-3.314c.053-2.07 4.426-3.21 6.638-3.21 2.213 0 6.585 1.14 6.639 3.21a8.073 7.553 0 01-6.639 3.314zM209.625 480.992a11.064 10.35 0 11-11.064 10.35 11.096 10.38 0 0111.064-10.35zm0 3.105a3.32 3.105 0 103.319 3.105 3.33 3.115 0 00-3.32-3.105zm0 14.948a8.06 7.54 0 006.638-3.314c-.053-2.07-4.425-3.21-6.638-3.21s-6.585 1.14-6.638 3.21a8.073 7.553 0 006.638 3.314z" fill="#fff"/><path d="M1177.05 434.516c-.062.012-.066.01-.094.01l-.019.021c.068-.019.018 0 .112-.027zm-3.31 9.613c.197.267.97.932.84.64-.01-.022-.035-.041-.047-.064 0 0-.01-.01-.013-.011-.259-.188-.51-.39-.779-.565zm-60.14 2.976l-.37.021a2.847 2.299 0 00-2.484 2.117v31.865c.01.042.043.076.053.117.123.521.011 1.034-.04 1.552.041-.022.117-.103.126-.064.147.666.034 1.514-.139 2.336v20.016l.119.288a2.844 2.296 0 002.622 1.403h79.063l.377-.022a2.864 2.312 0 002.496-2.303v-55.31a2.715 2.192 0 00-2.76-2.016zm2.905 4.724h73.219l-.033 39.633h-9.346l-7.463-7.849-.211-.176a1.779 1.436 0 00-2.45.091l-2.24 2.144-.185.165a1.623 1.31 0 01-2.258-.074l-8.85-7.134-.238-.165a1.633 1.319 0 00-1.988.085l-4.894 3.37-.224.138a1.63 1.316 0 01-2.22-.4l-7.707-8.957-.185-.182a1.653 1.335 0 00-2.695.352l-10.613 18.593h-9.418zm52.428 11.085a5.324 4.299 0 000 8.596 5.324 4.299 0 000-8.596zm-61.165 27.786v.24c.06-.066.118-.136.178-.203-.062-.01-.115-.03-.178-.037z" fill="#ff8900"/><path d="M1157.127 598.776l4.037.669 1.769-8.363 10.298.34-.001-4.092-9.437-.311 2.38-11.257 7.053.232-.001-4.092-6.191-.204 1.74-8.225-4.038-.668-1.852 8.756-8.003-.264 1.992-9.419-4.037-.668-2.105 9.95-9.961-.329v4.093l9.101.3-2.38 11.257-6.716-.222v4.092l5.855.193-1.403 6.637 4.037.668 1.516-7.168 8.004.264zm-5.488-12.158l2.381-11.257 8.004.264-2.381 11.257z" fill="#3f3d56"/><path data-name="ellipse6" d="M660.26 466.833a12.126 12.126 0 1012.118 12.126 12.118 12.118 0 00-12.118-12.126zm1.621 4.363a1.051 1.051 0 01.939.668 3.491 3.491 0 01.038 2.665 7.425 7.425 0 01-.579 1.337s-.15.225.338.217h3.101a.969.969 0 01.886 1.104.999.999 0 01-.653.969.045.045 0 000 .067 1.149 1.149 0 01.646.931.848.848 0 01-.751.939.053.053 0 00-.038.06.939.939 0 01.496.886.818.818 0 01-.623.788.06.06 0 00-.038.067.75.75 0 01.323.751.75.75 0 01-.796.751h-6.652s-.36 0-.36-.488v-4.37a5.819 5.819 0 01.87-3.048 16.766 16.766 0 011.562-1.907c.098-.098.45-.405.45-.57v-1.194a.75.75 0 01.841-.624zm-7.635 6.396h2.673a.383.383 0 01.383.383v6.104a.383.383 0 01-.383.383h-2.666a.375.375 0 01-.375-.383v-6.111a.375.375 0 01.368-.376z" fill="#5e90ff"/><path d="M642.088 517.155a1.233 1.233 0 01-1.68 0l-.646-.583c-5.28-4.845-8.33-7.992-8.33-11.917 0-3.2 2.027-5.674 5.203-5.674a6.073 6.073 0 014.614 2.165 6.065 6.065 0 014.61-2.165c3.181 0 5.203 2.465 5.203 5.674 0 3.916-3.049 7.064-8.33 11.917zM664.337 449.172a1.605 1.605 0 01-2.188 0l-.84-.76c-6.873-6.306-10.842-10.404-10.842-15.512 0-4.167 2.637-7.388 6.772-7.388a7.906 7.906 0 016.007 2.82 7.895 7.895 0 016.002-2.82c4.14 0 6.772 3.21 6.772 7.388 0 5.097-3.97 9.195-10.843 15.512zM681.623 371.395a1.779 1.779 0 01-2.425 0l-.93-.842c-7.619-6.99-12.018-11.531-12.018-17.193 0-4.618 2.923-8.187 7.506-8.187a8.762 8.762 0 016.657 3.125 8.75 8.75 0 016.652-3.125c4.588 0 7.505 3.557 7.505 8.187 0 5.65-4.399 10.191-12.017 17.193z" fill="#e62153"/><path fill="#5e90ff" d="M188.37 352.31a16.337 16.337 0 1016.328 16.336 16.327 16.327 0 00-16.327-16.337zm2.186 5.876a1.416 1.416 0 011.264.9 4.704 4.704 0 01.05 3.592 10.005 10.005 0 01-.778 1.8s-.202.304.455.294h4.178a1.305 1.305 0 011.194 1.487 1.345 1.345 0 01-.88 1.305.06.06 0 000 .09 1.548 1.548 0 01.87 1.255 1.143 1.143 0 01-1.012 1.265.07.07 0 00-.05.08 1.264 1.264 0 01.667 1.194 1.103 1.103 0 01-.84 1.062.08.08 0 00-.05.091 1.012 1.012 0 01.435 1.012 1.012 1.012 0 01-1.072 1.011h-8.963s-.486 0-.486-.657v-5.887a7.84 7.84 0 011.174-4.107 22.589 22.589 0 012.104-2.57c.131-.131.607-.546.607-.769v-1.608a1.012 1.012 0 011.133-.84zm-10.288 8.62h3.601a.516.516 0 01.516.515v8.224a.516.516 0 01-.516.516h-3.59a.506.506 0 01-.507-.516v-8.234a.506.506 0 01.496-.506zM689.937 380.748a16.337 16.337 0 1016.327 16.337 16.327 16.327 0 00-16.327-16.337zm2.185 5.877a1.416 1.416 0 011.264.9 4.704 4.704 0 01.05 3.592 10.005 10.005 0 01-.778 1.8s-.202.304.455.294h4.178a1.305 1.305 0 011.194 1.487 1.345 1.345 0 01-.88 1.305.06.06 0 000 .09 1.548 1.548 0 01.87 1.255 1.143 1.143 0 01-1.012 1.264.07.07 0 00-.05.081 1.264 1.264 0 01.667 1.194 1.103 1.103 0 01-.84 1.062.08.08 0 00-.05.091 1.012 1.012 0 01.435 1.012 1.012 1.012 0 01-1.073 1.011h-8.962s-.486 0-.486-.657v-5.888a7.84 7.84 0 011.174-4.107 22.589 22.589 0 012.104-2.57c.131-.13.607-.545.607-.768v-1.608a1.012 1.012 0 011.133-.84zm-10.288 8.619h3.601a.516.516 0 01.516.516v8.224a.516.516 0 01-.516.516h-3.59a.506.506 0 01-.507-.516v-8.234a.506.506 0 01.496-.506z" data-name="ellipse6"/><path fill="#ff8900" d="M742.132 558.777l2.165.359.948-4.484 5.522.182v-2.194l-5.06-.167 1.276-6.036 3.781.124v-2.194l-3.32-.11.933-4.41-2.165-.358-.993 4.695-4.291-.141 1.068-5.05-2.165-.36-1.128 5.336-5.342-.176v2.194l4.88.161-1.276 6.036-3.601-.118v2.194l3.14.103-.753 3.559 2.165.358.813-3.843 4.291.141zm-2.942-6.52l1.276-6.035 4.292.141-1.277 6.036z"/><path d="M1109.384 438.53a1.174 1.174 0 01-1.6 0l-.614-.555c-5.027-4.612-7.93-7.608-7.93-11.344 0-3.047 1.93-5.402 4.953-5.402a5.782 5.782 0 014.393 2.061 5.774 5.774 0 014.389-2.061c3.028 0 4.952 2.347 4.952 5.402 0 3.728-2.902 6.724-7.929 11.344z" fill="#e62153"/><path data-name="ellipse6" d="M1085.776 391.651a12.03 12.03 0 1012.023 12.03 12.023 12.023 0 00-12.023-12.03zm1.61 4.328a1.043 1.043 0 01.93.663 3.464 3.464 0 01.037 2.645 7.367 7.367 0 01-.573 1.326s-.15.223.335.216h3.076a.96.96 0 01.88 1.095.99.99 0 01-.649.96.045.045 0 000 .068 1.14 1.14 0 01.64.923.842.842 0 01-.744.931.052.052 0 00-.037.06.931.931 0 01.492.879.812.812 0 01-.619.782.06.06 0 00-.037.067.745.745 0 01.32.745.745.745 0 01-.789.745h-6.6s-.357 0-.357-.484v-4.336a5.773 5.773 0 01.864-3.024 16.634 16.634 0 011.55-1.892c.096-.097.446-.402.446-.566v-1.185a.745.745 0 01.834-.618zm-7.577 6.347h2.652a.38.38 0 01.38.38v6.056a.38.38 0 01-.38.38h-2.644a.372.372 0 01-.373-.38v-6.064a.372.372 0 01.365-.372z" fill="#5e90ff"/><g transform="matrix(.30503 0 0 .30503 1217.345 235.369)"><circle fill="#ff8900" r="52" cy="452.987" cx="-382.823"/><ellipse fill="#444053" ry="6.531" rx="4.987" cy="433.394" cx="-395.529"/><ellipse fill="#444053" ry="6.531" rx="4.987" cy="433.394" cx="-369.761"/><path fill="#3f3d56" d="M-351.653 453.937c0 9.378-15.662 25.174-31.467 25.174-15.805 0-30.874-16.152-30.874-25.53s14.742-.802 30.547-.802 31.794-8.22 31.794 1.158z"/><path fill="#f6f8fb" d="M-409.013 455.54s28.41 6.323 52.278.178c0 0 2.92 0 .925 3.377a5.379 5.379 0 01-2.189 2.047c-4.6 2.35-21.63 9.298-48.86.437a5.356 5.356 0 01-3.535-3.621c-.32-1.16-.182-2.258 1.381-2.418z"/></g><g transform="matrix(.3518 0 0 .3518 348.44 253.398)"><circle cx="-382.823" cy="452.987" r="52" fill="#ff8900"/><ellipse cx="-395.529" cy="433.394" rx="4.987" ry="6.531" fill="#444053"/><ellipse cx="-369.761" cy="433.394" rx="4.987" ry="6.531" fill="#444053"/><path d="M-351.653 453.937c0 9.378-15.662 25.174-31.467 25.174-15.805 0-30.874-16.152-30.874-25.53s14.742-.802 30.547-.802 31.794-8.22 31.794 1.158z" fill="#3f3d56"/><path d="M-409.013 455.54s28.41 6.323 52.278.178c0 0 2.92 0 .925 3.377a5.379 5.379 0 01-2.189 2.047c-4.6 2.35-21.63 9.298-48.86.437a5.356 5.356 0 01-3.535-3.621c-.32-1.16-.182-2.258 1.381-2.418z" fill="#f6f8fb"/></g><path d="M209.403 335.642a1.779 1.779 0 01-2.425 0l-.93-.842c-7.619-6.99-12.018-11.53-12.018-17.192 0-4.618 2.923-8.187 7.506-8.187a8.762 8.762 0 016.657 3.124 8.75 8.75 0 016.652-3.124c4.588 0 7.505 3.557 7.505 8.187 0 5.65-4.399 10.19-12.017 17.192z" fill="#e62153"/><path fill="#4d4d4d" d="M169.512 580.482h-10.587v-59.384H267.42v59.384h-76.547l-.582 13.247-12.76-8.135z"/><path d="M213.172 568.806l2.83-2.554c10.052-9.228 16.687-15.217 16.687-22.678 0-6.088-4.684-10.8-10.734-10.8a11.546 11.546 0 00-8.783 4.124 11.545 11.545 0 00-8.782-4.124c-6.05 0-10.735 4.712-10.735 10.8 0 7.46 6.636 13.45 16.687 22.678zM38.091 388.277h5.744a2.88 2.88 0 01-2.872 2.872 2.871 2.871 0 01-2.866-2.684l-.006-.188h5.744zm2.872-25.128a2.15 2.15 0 012.147 1.985l.007.169v.976c4.007.953 6.346 4.489 6.458 8.754l.004.321v7.18l1.852 1.852c.871.871.304 2.341-.88 2.45l-.14.005h-18.91c-1.231 0-1.863-1.438-1.1-2.352l.094-.103 1.853-1.853v-7.18c0-4.314 2.227-7.918 6.163-8.998l.298-.076v-.976c0-1.192.962-2.154 2.154-2.154zM1188.03 432.884h5.743a2.88 2.88 0 01-2.871 2.872 2.87 2.87 0 01-2.866-2.684l-.01-.188h5.743zm2.872-25.128a2.15 2.15 0 012.147 1.985l.01.169v.976c4.006.953 6.346 4.488 6.457 8.754v7.5l1.853 1.853c.87.87.304 2.341-.88 2.449l-.14.006h-18.91c-1.231 0-1.863-1.438-1.1-2.353l.094-.103 1.852-1.852v-7.18c0-4.314 2.228-7.918 6.163-8.998l.299-.076v-.977c0-1.192.962-2.154 2.154-2.154zM755.657 592.46c0 4.619-2.164 7.524-5.583 7.524-1.749 0-3.082-.934-3.316-2.32h-.249a3.632 3.632 0 01-3.596 2.237c-3.04 0-5.07-2.438-5.07-6.065 0-3.482 2.045-5.905 5.029-5.905a3.632 3.632 0 013.409 2.039h.249v-1.733h2.485v8.068a1.443 1.443 0 001.557 1.609c1.723 0 2.823-2.076 2.823-5.345 0-5.188-3.892-8.66-9.636-8.66s-9.73 4.151-9.73 10.004c0 5.994 4.007 9.823 10.244 9.823a18.789 18.789 0 003.388-.29.986.986 0 01.415 1.924 17.248 17.248 0 01-3.902.426c-7.58 0-12.453-4.67-12.453-11.935 0-7.098 4.955-11.97 12.173-11.97 6.953-.042 11.763 4.291 11.763 10.57zm-15.125 1.433c0 2.303 1.079 3.7 2.843 3.7 1.858 0 3.03-1.433 3.03-3.7 0-2.268-1.172-3.669-2.999-3.669-1.826 0-2.874 1.36-2.874 3.669zM23.912 655.35a4.223 4.223 0 110 8.446 4.223 4.223 0 010-8.446zm-4.223-7.768c0-1.646 1.453-2.983 3.08-2.712 8.136 1.298 14.548 7.71 15.865 15.846.252 1.627-1.085 3.08-2.731 3.08-1.284 0-2.331-.894-2.654-2.116l-.058-.267c-.977-5.485-5.196-9.859-10.609-11.02l-.51-.099c-1.357-.232-2.383-1.337-2.383-2.712zm2.756-13.789l.266.016c14.238 1.414 25.55 12.746 26.965 26.965a2.77 2.77 0 01-2.751 3.022 2.719 2.719 0 01-2.712-2.48c-1.162-11.642-10.422-20.901-22.064-22.064a2.717 2.717 0 01-2.46-2.712c0-1.518 1.261-2.76 2.756-2.747zM379.133 667.255a4.223 4.223 0 110 8.446 4.223 4.223 0 010-8.446zm-4.223-7.768c0-1.647 1.453-2.983 3.08-2.712 8.137 1.298 14.549 7.71 15.866 15.846.252 1.627-1.085 3.08-2.732 3.08-1.283 0-2.33-.895-2.654-2.116l-.058-.267c-.976-5.485-5.195-9.859-10.608-11.02l-.51-.099c-1.357-.232-2.383-1.337-2.383-2.712zm2.756-13.789l.266.016c14.238 1.414 25.551 12.746 26.966 26.965a2.77 2.77 0 01-2.751 3.022 2.718 2.718 0 01-2.712-2.48c-1.162-11.642-10.422-20.902-22.064-22.064a2.717 2.717 0 01-2.46-2.712c0-1.518 1.26-2.76 2.755-2.747zM650.301 605.709a4.286 4.286 0 01.986 8.442 3.73 3.73 0 01-.986.13 4.456 4.456 0 01-.372-.031l-.185-.027h-.214a4.186 4.186 0 01-1.888-.895l-.39-.351a4.286 4.286 0 01-1.09-1.733l-.075-.25-.041-.088c-.03-.09-.03-.187-.03-.283a3.132 3.132 0 010-.514.314.314 0 010-.115c.002-.71.183-1.408.528-2.028a4.286 4.286 0 013.757-2.257zm-12.057-4.172l8.229 4.786a5.572 5.572 0 00-1.142 1.847l-.101.296-8.214-4.786a5.357 5.357 0 001.142-1.879zm-5.086-5.828a4.286 4.286 0 012.796 7.503l-.403.335-.121.09-.214.115c-.138.068-.266.192-.399.238l-.101.019h-.129a4.2 4.2 0 01-1.429.271 4.286 4.286 0 010-8.571zm3.858.614l8.185-4.772a5.314 5.314 0 001.044 1.923l.185.206-8.186 4.771a5.557 5.557 0 00-1.024-1.894zm14.375-10.501a4.286 4.286 0 01-.104 8.33 4.43 4.43 0 01-.986.128 4.284 4.284 0 01-.372-.049l-.185-.037h-.214a4.286 4.286 0 01-1.887-.896l-.199-.175-.191-.173a4.286 4.286 0 01-1.09-1.71l-.076-.246-.041-.094c-.03-.092-.03-.18-.03-.277a3.132 3.132 0 010-.514.314.314 0 010-.115c.002-.71.183-1.408.528-2.028a4.286 4.286 0 014.847-2.144z" fill="#ff8900"/><path data-name="ellipse6" d="M286.737 244.23a16.337 16.337 0 1016.327 16.337 16.327 16.327 0 00-16.327-16.337zm2.185 5.878a1.416 1.416 0 011.264.9 4.704 4.704 0 01.05 3.591 10.005 10.005 0 01-.778 1.8s-.202.304.455.294h4.178a1.305 1.305 0 011.194 1.487 1.345 1.345 0 01-.88 1.305.06.06 0 000 .09 1.548 1.548 0 01.87 1.255 1.143 1.143 0 01-1.012 1.265.07.07 0 00-.05.08 1.264 1.264 0 01.667 1.194 1.103 1.103 0 01-.84 1.062.08.08 0 00-.05.091 1.012 1.012 0 01.435 1.012 1.012 1.012 0 01-1.073 1.012h-8.962s-.486 0-.486-.658v-5.887a7.84 7.84 0 011.174-4.107 22.589 22.589 0 012.104-2.57c.131-.131.607-.546.607-.769v-1.608a1.012 1.012 0 011.133-.84zm-10.288 8.618h3.601a.516.516 0 01.516.516v8.224a.516.516 0 01-.516.516h-3.59a.506.506 0 01-.507-.516v-8.234a.506.506 0 01.496-.506z" fill="#5e90ff"/><g transform="matrix(.3518 0 0 .3518 560.627 76.46)"><circle fill="#ff8900" r="52" cy="452.987" cx="-382.823"/><ellipse fill="#444053" ry="6.531" rx="4.987" cy="433.394" cx="-395.529"/><ellipse fill="#444053" ry="6.531" rx="4.987" cy="433.394" cx="-369.761"/><path fill="#3f3d56" d="M-351.653 453.937c0 9.378-15.662 25.174-31.467 25.174-15.805 0-30.874-16.152-30.874-25.53s14.742-.802 30.547-.802 31.794-8.22 31.794 1.158z"/><path fill="#f6f8fb" d="M-409.013 455.54s28.41 6.323 52.278.178c0 0 2.92 0 .925 3.377a5.379 5.379 0 01-2.189 2.047c-4.6 2.35-21.63 9.298-48.86.437a5.356 5.356 0 01-3.535-3.621c-.32-1.16-.182-2.258 1.381-2.418z"/></g><path fill="#e62153" d="M338.072 220.104a1.779 1.779 0 01-2.425 0l-.93-.841c-7.619-6.99-12.018-11.531-12.018-17.193 0-4.618 2.923-8.187 7.506-8.187a8.762 8.762 0 016.657 3.125 8.75 8.75 0 016.652-3.125c4.589 0 7.505 3.557 7.505 8.187 0 5.65-4.399 10.191-12.017 17.193z"/><path d="M510.25 235.058l3.464.574 1.518-7.175 8.835.292v-3.511l-8.097-.267 2.042-9.658 6.05.2V212l-5.312-.175 1.493-7.057-3.464-.573-1.589 7.513-6.867-.227 1.71-8.081-3.465-.574-1.805 8.538-8.546-.282v3.51l7.808.258-2.043 9.658-5.761-.19v3.511l5.024.166-1.205 5.694 3.464.573 1.3-6.15 6.868.227zm-4.708-10.431l2.043-9.658 6.867.226-2.043 9.658zM910.263 249.957l3.58.592 1.57-7.417 9.134.301-.001-3.63-8.37-.276 2.111-9.985 6.255.207v-3.63l-5.492-.181 1.543-7.296-3.581-.592-1.643 7.766-7.1-.234 1.768-8.354-3.581-.593-1.867 8.826-8.835-.292v3.63l8.073.266-2.112 9.985-5.957-.196v3.63l5.194.171-1.245 5.887 3.58.593 1.346-6.359 7.099.235zm-4.868-10.785l2.112-9.985 7.1.234-2.113 9.985zM605.921 189.835c0 4.618-2.164 7.523-5.583 7.523-1.749 0-3.082-.934-3.316-2.319h-.249a3.632 3.632 0 01-3.596 2.236c-3.04 0-5.07-2.438-5.07-6.065 0-3.482 2.045-5.905 5.029-5.905a3.632 3.632 0 013.409 2.039h.249v-1.733h2.485v8.069a1.443 1.443 0 001.557 1.608c1.723 0 2.823-2.075 2.823-5.344 0-5.19-3.892-8.66-9.636-8.66s-9.73 4.15-9.73 10.003c0 5.994 4.007 9.823 10.244 9.823a18.789 18.789 0 003.388-.29.986.986 0 01.415 1.924 17.248 17.248 0 01-3.902.426c-7.58 0-12.453-4.67-12.453-11.934 0-7.099 4.955-11.971 12.173-11.971 6.953-.042 11.763 4.291 11.763 10.57zm-15.126 1.432c0 2.304 1.08 3.7 2.844 3.7 1.858 0 3.03-1.433 3.03-3.7 0-2.268-1.172-3.669-2.999-3.669-1.826 0-2.875 1.36-2.875 3.669z" fill="#ff8900"/><path data-name="ellipse6" d="M811.882 215.281a16.337 16.337 0 1016.327 16.337 16.327 16.327 0 00-16.327-16.337zm2.185 5.877a1.416 1.416 0 011.264.9 4.704 4.704 0 01.05 3.592 10.005 10.005 0 01-.778 1.8s-.202.304.455.294h4.178a1.305 1.305 0 011.194 1.487 1.345 1.345 0 01-.88 1.305.06.06 0 000 .09 1.548 1.548 0 01.87 1.255 1.143 1.143 0 01-1.012 1.265.07.07 0 00-.05.08 1.264 1.264 0 01.667 1.194 1.103 1.103 0 01-.84 1.062.08.08 0 00-.05.091 1.012 1.012 0 01.435 1.012 1.012 1.012 0 01-1.073 1.012h-8.962s-.486 0-.486-.658v-5.887a7.84 7.84 0 011.174-4.107 22.589 22.589 0 012.104-2.57c.131-.131.607-.546.607-.769v-1.608a1.012 1.012 0 011.133-.84zm-10.288 8.62h3.601a.516.516 0 01.516.515v8.224a.516.516 0 01-.516.516h-3.591a.506.506 0 01-.506-.516v-8.234a.506.506 0 01.496-.506zM1154.273 320.057a16.337 16.337 0 1016.326 16.337 16.327 16.327 0 00-16.326-16.337zm2.185 5.878a1.416 1.416 0 011.264.9 4.704 4.704 0 01.051 3.591 10.005 10.005 0 01-.779 1.8s-.202.304.455.294h4.178a1.305 1.305 0 011.194 1.487 1.345 1.345 0 01-.88 1.305.06.06 0 000 .09 1.548 1.548 0 01.87 1.255 1.143 1.143 0 01-1.012 1.265.07.07 0 00-.05.08 1.264 1.264 0 01.667 1.194 1.103 1.103 0 01-.84 1.062.08.08 0 00-.05.091 1.012 1.012 0 01.434 1.012 1.012 1.012 0 01-1.072 1.012h-8.963s-.485 0-.485-.658v-5.887a7.84 7.84 0 011.173-4.107 22.589 22.589 0 012.104-2.57c.132-.131.607-.546.607-.769v-1.608a1.012 1.012 0 011.133-.84zm-10.288 8.618h3.601a.516.516 0 01.516.516v8.224a.516.516 0 01-.516.516h-3.591a.506.506 0 01-.506-.516v-8.234a.506.506 0 01.496-.506z" fill="#5e90ff"/><path d="M741.113 208.776a1.779 1.779 0 01-2.425 0l-.93-.842c-7.619-6.99-12.018-11.53-12.018-17.192 0-4.619 2.923-8.187 7.506-8.187a8.762 8.762 0 016.657 3.124 8.75 8.75 0 016.652-3.125c4.588 0 7.505 3.558 7.505 8.188 0 5.65-4.399 10.19-12.017 17.192z" fill="#e62153"/></svg>