<svg xmlns="http://www.w3.org/2000/svg" width="1000" height="456"><path d="M585.942 98.019c9.584 0 17.786 1.162 24.609 3.482 6.818 2.318 12.42 5.529 16.809 9.62 4.384 4.092 7.612 8.921 9.674 14.482 2.063 5.574 3.097 11.562 3.097 17.972 0 8.78-1.347 16.909-4.037 24.383-2.692 7.485-6.8 13.956-12.332 19.41-5.527 5.46-12.534 9.73-21.012 12.826-8.477 3.096-18.503 4.646-30.077 4.646h-17.14l-6.745 54.3h-35.829l19.683-161.123h53.3zm-9.73 79.73c5.159 0 9.493-.755 12.994-2.27 3.501-1.505 6.34-3.646 8.515-6.41 2.173-2.766 3.74-6.064 4.698-9.9.96-3.83 1.441-8.03 1.441-12.604 0-3.173-.428-6.084-1.275-8.734-.85-2.657-2.154-4.94-3.925-6.857-1.768-1.919-3.999-3.411-6.69-4.476-2.693-1.07-5.879-1.608-9.564-1.608h-17.032l-6.524 52.86h17.362zm219.728-79.73L776.035 259.14h-36.272l8.515-68.565h-58.167l-8.514 68.565h-36.27l19.902-161.121h36.27l-8.403 68.005h58.169l8.403-68.005zm82.496 0c9.582 0 17.786 1.162 24.606 3.482 6.818 2.318 12.422 5.529 16.81 9.62 4.383 4.092 7.611 8.921 9.675 14.482 2.061 5.574 3.096 11.562 3.096 17.972 0 8.78-1.348 16.909-4.036 24.383-2.693 7.485-6.802 13.956-12.334 19.41-5.527 5.46-12.53 9.73-21.01 12.826-8.477 3.096-18.504 4.646-30.078 4.646h-17.14l-6.745 54.3h-35.828l19.683-161.123h53.3zm-9.73 79.73c5.158 0 9.49-.755 12.992-2.27 3.5-1.505 6.34-3.646 8.516-6.41 2.172-2.766 3.74-6.064 4.699-9.9.958-3.83 1.438-8.03 1.438-12.604 0-3.173-.426-6.084-1.273-8.734-.85-2.657-2.155-4.94-3.926-6.857-1.768-1.919-3.998-3.411-6.69-4.476-2.692-1.07-5.877-1.608-9.563-1.608h-17.032l-6.524 52.86h17.362zM544.861 298.951c8.432 0 14.755 1.902 18.971 5.688 4.215 3.792 6.323 9.112 6.323 15.961 0 4.38-.75 8.383-2.25 12.011-1.499 3.629-3.628 6.747-6.382 9.367-2.757 2.613-6.083 4.65-9.974 6.106-3.89 1.462-8.232 2.196-13.013 2.196h-14.594l-4.257 34.715h-6.02l10.52-86.042h20.676zm-5.716 46.46c3.81 0 7.244-.608 10.305-1.825 3.062-1.216 5.675-2.9 7.846-5.047 2.167-2.145 3.84-4.698 5.017-7.66 1.173-2.96 1.763-6.182 1.763-9.67 0-5.515-1.651-9.795-4.957-12.859-3.303-3.064-8.26-4.596-14.866-4.596h-14.595l-5.106 41.657zm71.02-46.46c8.307 0 14.524 1.652 18.638 4.955 4.113 3.308 6.172 8.106 6.172 14.384 0 3.728-.608 7.145-1.825 10.247-1.217 3.096-2.94 5.807-5.171 8.116-2.228 2.313-4.913 4.205-8.056 5.682-3.14 1.484-6.617 2.465-10.427 2.955.769.483 1.479 1.271 2.128 2.368l22.438 37.334h-5.169c-.65 0-1.186-.11-1.61-.332-.429-.222-.804-.613-1.127-1.19l-20.737-35.018c-.567-.89-1.184-1.522-1.854-1.89-.668-.36-1.752-.544-3.25-.544h-10.279l-4.803 38.974h-6.02l10.52-86.043h20.432zm-6.021 42.57c3.853 0 7.308-.531 10.37-1.585 3.06-1.054 5.664-2.554 7.811-4.5 2.149-1.944 3.793-4.291 4.927-7.05 1.134-2.76 1.704-5.818 1.704-9.182 0-5.193-1.644-9.061-4.927-11.615-3.285-2.554-8.088-3.834-14.411-3.834h-14.35l-4.683 37.767h13.559zm59.715-37.584l-4.319 35.03h34.479l-.668 4.863h-34.42l-4.438 36.176h41.592l-.668 4.988h-47.613l10.581-86.043h47.553l-.668 4.987h-41.411zm65.55 0l-4.502 36.427h35.936l-.727 5.046h-35.818l-4.866 39.583h-6.078l10.58-86.043h47.553l-.668 4.987zm54.36 81.057h-6.08l10.52-86.043h6.08zm57.404-46.276l24.08 46.276h-5.414c-.568 0-.972-.157-1.217-.483a13.881 13.881 0 01-.668-.973l-20.978-41.354a5.248 5.248 0 01-.912 1.468l-30.404 39.886c-.69.973-1.5 1.456-2.432 1.456h-5.96l35.51-45.97-21.283-40.073h5.415c.567 0 .972.103 1.214.305.245.207.49.532.73.978l18.303 35.693a14.46 14.46 0 01.913-1.581l26.27-34.297c.486-.728 1.133-1.096 1.944-1.096h6.02zm53.568-34.781l-4.318 35.03H924.9l-.668 4.863h-34.418l-4.439 36.176h41.592l-.668 4.988h-47.612l10.58-86.043h47.553l-.668 4.987h-41.41zm80.448-4.986c8.308 0 14.525 1.652 18.639 4.955 4.112 3.308 6.172 8.106 6.172 14.384 0 3.728-.608 7.145-1.825 10.247-1.217 3.096-2.94 5.807-5.17 8.116-2.23 2.313-4.914 4.205-8.056 5.682-3.14 1.484-6.616 2.465-10.428 2.955.768.483 1.48 1.271 2.129 2.368l22.438 37.334h-5.17c-.65 0-1.186-.11-1.612-.332-.425-.222-.8-.613-1.124-1.19l-20.737-35.018c-.567-.89-1.184-1.522-1.856-1.89-.666-.36-1.751-.544-3.25-.544h-10.276l-4.805 38.974h-6.018l10.52-86.043h20.429zm-6.02 42.57c3.851 0 7.307-.531 10.368-1.585 3.06-1.054 5.664-2.554 7.812-4.5 2.149-1.944 3.792-4.291 4.927-7.05 1.133-2.76 1.704-5.818 1.704-9.182 0-5.193-1.643-9.061-4.929-11.615-3.284-2.554-8.086-3.834-14.41-3.834h-14.35l-4.683 37.767h13.56zM378.592 71.181c-.503-.347-.998-.657-1.481-.96a33.218 33.218 0 00-1.372-.777L262.256.394h-22.19L10.279 140.11 0 158.332v139.706l10.257 18.243L240.037 456h22.18l114.88-69.853v-36.486l-84.882-51.61 84.896-51.621c37.195-22.611 57.736-53.816 57.828-87.846.095-33.728-19.908-64.737-56.347-87.403zm-127.44 201.867l-73.8-44.88 73.772-44.857 73.807 44.885zM95.15 228.191l-52.458 31.89v-63.785zm155.975 184.586L62.432 298.038l73.803-44.868 9.866 5.999 178.82 108.734zm114.208-209.983L262.216 140.09h-22.179l-103.802 63.117-64.25-39.066-9.514-5.785L251.16 43.616l102.983 62.66.54.27a18.79 18.79 0 01-2.256-1.76l2.507 1.88 2.51 1.243a18.873 18.873 0 01-2.32-1.096l.407.298c23.727 14.615 36.768 32.846 36.716 51.35-.04 15.691-9.568 31.12-26.914 44.332z" fill="#006bcc"/></svg>