<svg xmlns="http://www.w3.org/2000/svg" viewBox="0 0 180.697 138.454"><g transform="translate(-37.42 -67.463)"><path fill="#a7a5a5" d="M58.117 109.039h160v95h-160z"/><path fill="#101827" d="M58.117 95.039h160v14h-160z"/><path fill="#cac9c9" d="M48.813 100.248h160v95h-160z"/><path fill="#223453" d="M48.813 86.3h160v14h-160z"/><path fill="#e8e8e8" d="M37.42 91.82h160v95h-160z"/><path fill="#334e7e" d="M37.42 77.82h160v14h-160z"/><path fill="#334e7e" d="M37.42 67.463h38v10.5h-38z"/><path fill="#3cb9b7" d="M78.417 67.463h38v10.5h-38z"/><path fill="#e72d27" d="M119.377 67.463h38v10.5h-38z"/><circle cx="191.633" cy="71.846" r="4" fill="#e72d27"/><circle cx="171.065" cy="71.846" r="4" fill="#3cb9b7"/><circle cx="181.309" cy="71.846" r="4" fill="#334e7e"/><circle cx="116.935" cy="135.842" r="30" fill="#334e7e"/><circle cx="116.803" cy="135.969" r="22.5" fill="#ff8900"/><g><path fill="#213251" d="M130.342 162.585l5.119-3.13 4.733 7.737-5.118 3.131z"/><path fill="#e72d27" d="M132.653 171.795l10.236-6.262 20.873 34.122-10.237 6.262z"/><path fill="#334e7e" d="M133.33 173.99l11.09-6.784 1.566 2.56-11.09 6.783zM150.334 201.568l11.09-6.783 1.565 2.559-11.09 6.784z"/></g></g></svg>